<svg id="visual" viewBox="0 0 960 540" width="960" height="540" xmlns="http://www.w3.org/2000/svg" xmlns:xlink="http://www.w3.org/1999/xlink" version="1.1"><rect x="0" y="0" width="960" height="540" fill="#FFFFFF"></rect><path d="M467 540L446 540L446 463L445 463L445 386L436 386L436 309L611 309L611 231L611 231L611 154L603 154L603 77L443 77L443 0L960 0L960 77L960 77L960 154L960 154L960 231L960 231L960 309L960 309L960 386L960 386L960 463L960 463L960 540L960 540Z" fill="#ffffff"></path><path d="M682 540L690 540L690 463L578 463L578 386L674 386L674 309L582 309L582 231L648 231L648 154L693 154L693 77L740 77L740 0L960 0L960 77L960 77L960 154L960 154L960 231L960 231L960 309L960 309L960 386L960 386L960 463L960 463L960 540L960 540Z" fill="#aeeaff"></path><path d="M808 540L837 540L837 463L779 463L779 386L715 386L715 309L856 309L856 231L756 231L756 154L767 154L767 77L835 77L835 0L960 0L960 77L960 77L960 154L960 154L960 231L960 231L960 309L960 309L960 386L960 386L960 463L960 463L960 540L960 540Z" fill="#16d5ff"></path></svg>